<svg xmlns="http://www.w3.org/2000/svg" viewBox="0 0 24 24" height="1em" width="1em" style="flex:none;line-height:1" role="img" aria-label="Sub2API">
  <title>Sub2API</title>
  <defs>
    <linearGradient id="s2a-brand" x1="4" y1="4" x2="20" y2="20" gradientUnits="userSpaceOnUse">
      <stop stop-color="#79F4BD"/>
      <stop offset=".48" stop-color="#39D9E7"/>
      <stop offset="1" stop-color="#3875F6"/>
    </linearGradient>
  </defs>
  <g fill="none" stroke="url(#s2a-brand)" stroke-linecap="round" stroke-linejoin="round" stroke-width="2.6">
    <path d="m19.25 7.65-2.55-3.2a1.33 1.33 0 0 0-1.03-.5H8.58c-.34 0-.67.13-.91.37L4.15 7.65c-.93.88-.6 1.52.65 2.3l9.55 5.97"/>
    <path d="m4.75 16.35 2.55 3.2c.25.31.63.5 1.03.5h7.09c.34 0 .67-.13.91-.37l3.52-3.33c.93-.88.6-1.52-.65-2.3L9.65 8.08"/>
  </g>
</svg>
